<svg viewBox="0 0 16 16" xmlns="http://www.w3.org/2000/svg" fill="none"><path fill="#30ba78" d="M11.95 2.1c.36.14.7.32 1.02.5.34.18.63.4.88.62.24.23.44.48.58.74.15.25.2.53.17.82-.03.24-.1.46-.22.65a2.23 2.23 0 0 1-.5.54 3.73 3.73 0 0 1-.74.45c-.28.13-.58.23-.88.3-.3.08-.62.11-.93.11s-.63-.03-.94-.1a3.74 3.74 0 0 1-.88-.3c-.27-.14-.52-.3-.74-.5-.22-.22-.4-.46-.5-.73a1.4 1.4 0 0 1-.03-.93c.08-.34.25-.63.5-.88.24-.25.54-.44.87-.58.33-.14.7-.22 1.07-.22s.73.08 1.07.22zm-.96 1.13a.56.56 0 0 0-.46.06.66.66 0 0 0-.25.26.85.85 0 0 0-.1.38c.01.12.06.24.13.33.08.1.18.17.29.22.12.05.25.07.38.05a.5.5 0 0 0 .32-.15.6.6 0 0 0 .16-.33.74.74 0 0 0-.01-.4.51.51 0 0 0-.17-.3.44.44 0 0 0-.29-.12zm-3.1 6.54c.3-.12.57-.3.8-.49.21-.2.4-.41.52-.64.12-.22.18-.45.18-.68a1.69 1.69 0 0 0-.14-.65 2.45 2.45 0 0 0-.45-.63c-.15-.17-.33-.31-.54-.42-.2-.11-.42-.2-.65-.24s-.47-.04-.7.01c-.24.05-.46.14-.66.26-.2.13-.38.28-.53.46-.14.17-.26.37-.34.59a2.3 2.3 0 0 0-.1.74c.02.26.09.5.21.72.13.21.3.4.52.56.2.15.44.27.7.35.26.07.54.08.82.02.13-.03.26-.06.37-.11zm-1.01-.9c-.1-.02-.2-.04-.3-.1-.08-.04-.15-.1-.2-.18a.56.56 0 0 1-.07-.25.68.68 0 0 1 .01-.3.53.53 0 0 1 .15-.26.54.54 0 0 1 .28-.15c.1-.03.2-.03.31-.01.1.03.2.08.28.15a.51.51 0 0 1 .14.28.66.66 0 0 1-.02.32.54.54 0 0 1-.18.28.52.52 0 0 1-.3.12 1.2 1.2 0 0 1-.1-.01zM14 11h-1.5c-.28 0-.53.11-.71.3-.18.17-.29.42-.29.7 0 .28.11.53.3.71.17.18.42.29.7.29H14c.28 0 .53-.11.71-.3.18-.17.29-.42.29-.7 0-.28-.11-.53-.3-.71a.99.99 0 0 0-.7-.29zm-5 0H7.5c-.28 0-.53.11-.71.3-.18.17-.29.42-.29.7 0 .28.11.53.3.71.17.18.42.29.7.29H9c.28 0 .53-.11.71-.3.18-.17.29-.42.29-.7 0-.28-.11-.53-.3-.71a.99.99 0 0 0-.7-.29zM4 11H2.5c-.28 0-.53.11-.7.3-.19.17-.3.42-.3.7 0 .28.11.53.3.71.17.18.42.29.7.29H4c.28 0 .53-.11.71-.3.18-.17.3-.42.3-.7 0-.28-.11-.53-.3-.71A.99.99 0 0 0 4 11zM11.5 5.5h-7c-.28 0-.53.11-.71.3-.18.17-.29.42-.29.7 0 .28.11.53.3.71.17.18.42.29.7.29h7c.28 0 .53-.11.71-.3.18-.17.29-.42.29-.7 0-.28-.11-.53-.3-.71a.99.99 0 0 0-.7-.29z"/></svg>
